<svg xmlns="http://www.w3.org/2000/svg" xmlns:xlink="http://www.w3.org/1999/xlink" width="512" zoomAndPan="magnify" viewBox="0 0 384 383.999986" height="512" preserveAspectRatio="xMidYMid meet" version="1.0"><defs><g/><clipPath id="5b6ecffb06"><path d="M 264.796875 118.53125 L 304.546875 118.53125 L 304.546875 165.78125 L 264.796875 165.78125 Z M 264.796875 118.53125 " clip-rule="nonzero"/></clipPath><clipPath id="8f090b27de"><path d="M 218 147 L 264 147 L 264 193 L 218 193 Z M 218 147 " clip-rule="nonzero"/></clipPath><clipPath id="3856a3abee"><path d="M 279.070312 175.589844 L 245.660156 209 L 217.554688 180.890625 L 250.964844 147.480469 Z M 279.070312 175.589844 " clip-rule="nonzero"/></clipPath><clipPath id="15ae920f71"><path d="M 279.316406 175.832031 L 245.90625 209.246094 L 217.269531 180.605469 L 250.679688 147.195312 Z M 279.316406 175.832031 " clip-rule="nonzero"/></clipPath><clipPath id="7fc639c785"><path d="M 269 166 L 315 166 L 315 213 L 269 213 Z M 269 166 " clip-rule="nonzero"/></clipPath><clipPath id="ca77b19947"><path d="M 287.160156 227.824219 L 253.75 194.410156 L 281.855469 166.304688 L 315.265625 199.714844 Z M 287.160156 227.824219 " clip-rule="nonzero"/></clipPath><clipPath id="a5ea711ea8"><path d="M 286.914062 228.066406 L 253.503906 194.65625 L 282.140625 166.019531 L 315.550781 199.429688 Z M 286.914062 228.066406 " clip-rule="nonzero"/></clipPath></defs><rect x="-38.4" width="460.8" fill="#ffffff" y="-38.399999" height="460.799983" fill-opacity="1"/><g clip-path="url(#5b6ecffb06)"><path fill="#d4d200" d="M 267.730469 165.109375 L 303.71875 143.71875 L 303.71875 143.707031 C 304.417969 143.304688 304.890625 142.558594 304.890625 141.695312 C 304.890625 140.921875 304.511719 140.238281 303.929688 139.816406 L 303.929688 139.808594 L 303.90625 139.796875 C 303.796875 139.71875 303.675781 139.652344 303.554688 139.59375 L 267.714844 118.9375 C 267.34375 118.691406 266.898438 118.542969 266.417969 118.542969 C 265.132812 118.542969 264.085938 119.589844 264.085938 120.875 L 264.085938 163.179688 C 264.085938 164.46875 265.132812 165.511719 266.417969 165.511719 C 266.90625 165.511719 267.355469 165.363281 267.730469 165.109375 Z M 267.730469 165.109375 " fill-opacity="1" fill-rule="nonzero"/></g><g clip-path="url(#8f090b27de)"><g clip-path="url(#3856a3abee)"><g clip-path="url(#15ae920f71)"><path fill="#40c7c0" d="M 220.105469 182.488281 L 260.679688 192.8125 L 260.6875 192.804688 C 261.464844 193.015625 262.328125 192.824219 262.9375 192.210938 C 263.484375 191.664062 263.695312 190.914062 263.585938 190.203125 L 263.589844 190.199219 L 263.582031 190.171875 C 263.5625 190.039062 263.523438 189.90625 263.476562 189.777344 L 252.742188 149.832031 C 252.652344 149.394531 252.441406 148.976562 252.101562 148.636719 C 251.191406 147.726562 249.714844 147.726562 248.804688 148.636719 L 218.890625 178.550781 C 217.980469 179.460938 217.980469 180.9375 218.894531 181.847656 C 219.234375 182.191406 219.660156 182.40625 220.105469 182.488281 Z M 220.105469 182.488281 " fill-opacity="1" fill-rule="nonzero"/></g></g></g><g clip-path="url(#7fc639c785)"><g clip-path="url(#ca77b19947)"><g clip-path="url(#a5ea711ea8)"><path fill="#b5386d" d="M 280.257812 168.855469 L 269.933594 209.429688 L 269.941406 209.4375 C 269.734375 210.214844 269.925781 211.078125 270.535156 211.6875 C 271.082031 212.238281 271.832031 212.449219 272.542969 212.335938 L 272.546875 212.34375 L 272.574219 212.335938 C 272.707031 212.3125 272.839844 212.273438 272.96875 212.230469 L 312.914062 201.492188 C 313.351562 201.40625 313.769531 201.195312 314.109375 200.855469 C 315.019531 199.945312 315.019531 198.46875 314.109375 197.558594 L 284.195312 167.644531 C 283.285156 166.734375 281.808594 166.734375 280.898438 167.644531 C 280.554688 167.988281 280.34375 168.410156 280.257812 168.855469 Z M 280.257812 168.855469 " fill-opacity="1" fill-rule="nonzero"/></g></g></g><g fill="#222222" fill-opacity="1"><g transform="translate(45.646885, 242.852609)"><g><path d="M 19.652344 -7.515625 L 22.089844 0 L 30.320312 0 L 19.863281 -28.976562 L 10.625 -28.976562 L 0.167969 0 L 8.1875 0 L 10.625 -7.515625 Z M 15.160156 -22.300781 L 17.847656 -13.394531 L 12.472656 -13.394531 Z M 15.160156 -22.300781 "/></g></g></g><g fill="#222222" fill-opacity="1"><g transform="translate(75.33234, 242.852609)"><g><path d="M 17.21875 -23.011719 C 14.949219 -23.011719 12.765625 -22.550781 11.507812 -21.628906 L 9.828125 -19.148438 L 9.828125 -22.425781 L 2.269531 -22.425781 L 2.269531 8.230469 L 9.828125 8.230469 L 9.828125 -2.898438 L 11.296875 -0.503906 C 12.429688 0.167969 14.613281 0.589844 16.460938 0.589844 C 22.214844 0.589844 27.085938 -3.738281 27.085938 -11.714844 C 27.085938 -18.351562 23.308594 -23.011719 17.21875 -23.011719 Z M 14.402344 -4.535156 C 12.136719 -4.535156 9.828125 -6.046875 9.828125 -10.539062 L 9.828125 -11.507812 C 9.828125 -16.210938 11.84375 -17.890625 14.613281 -17.890625 C 17.257812 -17.890625 19.359375 -15.539062 19.359375 -11.339844 C 19.359375 -6.761719 17.34375 -4.535156 14.402344 -4.535156 Z M 14.402344 -4.535156 "/></g></g></g><g fill="#222222" fill-opacity="1"><g transform="translate(103.422251, 242.852609)"><g><path d="M 17.21875 -23.011719 C 14.949219 -23.011719 12.765625 -22.550781 11.507812 -21.628906 L 9.828125 -19.148438 L 9.828125 -22.425781 L 2.269531 -22.425781 L 2.269531 8.230469 L 9.828125 8.230469 L 9.828125 -2.898438 L 11.296875 -0.503906 C 12.429688 0.167969 14.613281 0.589844 16.460938 0.589844 C 22.214844 0.589844 27.085938 -3.738281 27.085938 -11.714844 C 27.085938 -18.351562 23.308594 -23.011719 17.21875 -23.011719 Z M 14.402344 -4.535156 C 12.136719 -4.535156 9.828125 -6.046875 9.828125 -10.539062 L 9.828125 -11.507812 C 9.828125 -16.210938 11.84375 -17.890625 14.613281 -17.890625 C 17.257812 -17.890625 19.359375 -15.539062 19.359375 -11.339844 C 19.359375 -6.761719 17.34375 -4.535156 14.402344 -4.535156 Z M 14.402344 -4.535156 "/></g></g></g><g fill="#222222" fill-opacity="1"><g transform="translate(131.512163, 242.852609)"><g><path d="M 11.507812 -23.011719 C 5.542969 -23.011719 1.679688 -20.242188 1.679688 -15.789062 C 1.679688 -11.96875 4.242188 -9.996094 8.523438 -8.988281 C 12.515625 -8.0625 13.941406 -7.265625 13.941406 -5.835938 C 13.941406 -4.660156 12.890625 -4.117188 11.546875 -4.117188 C 9.953125 -4.117188 8.609375 -5.25 8.1875 -6.972656 L 0.757812 -6.972656 C 1.34375 -1.933594 5.5 0.589844 11.589844 0.589844 C 17.007812 0.589844 21.5 -1.636719 21.5 -6.425781 C 21.5 -10.75 18.601562 -12.515625 14.53125 -13.523438 C 10.246094 -14.570312 9.238281 -15.410156 9.238281 -16.671875 C 9.238281 -17.636719 9.996094 -18.308594 11.042969 -18.308594 C 12.386719 -18.308594 13.144531 -17.425781 13.480469 -15.875 L 20.914062 -15.875 C 20.324219 -19.945312 17.089844 -23.011719 11.507812 -23.011719 Z M 11.507812 -23.011719 "/></g></g></g><g fill="#222222" fill-opacity="1"><g transform="translate(153.681786, 242.852609)"><g><path d="M 17.21875 -23.011719 C 14.949219 -23.011719 12.765625 -22.550781 11.507812 -21.628906 L 9.828125 -19.148438 L 9.828125 -22.425781 L 2.269531 -22.425781 L 2.269531 8.230469 L 9.828125 8.230469 L 9.828125 -2.898438 L 11.296875 -0.503906 C 12.429688 0.167969 14.613281 0.589844 16.460938 0.589844 C 22.214844 0.589844 27.085938 -3.738281 27.085938 -11.714844 C 27.085938 -18.351562 23.308594 -23.011719 17.21875 -23.011719 Z M 14.402344 -4.535156 C 12.136719 -4.535156 9.828125 -6.046875 9.828125 -10.539062 L 9.828125 -11.507812 C 9.828125 -16.210938 11.84375 -17.890625 14.613281 -17.890625 C 17.257812 -17.890625 19.359375 -15.539062 19.359375 -11.339844 C 19.359375 -6.761719 17.34375 -4.535156 14.402344 -4.535156 Z M 14.402344 -4.535156 "/></g></g></g><g fill="#222222" fill-opacity="1"><g transform="translate(181.771698, 242.852609)"><g><path d="M 9.660156 -30.867188 L 2.101562 -30.867188 L 2.101562 -7.9375 C 2.101562 -6.257812 2.101562 -5.125 2.183594 -3.949219 C 2.351562 -0.964844 4.324219 0.421875 7.8125 0.421875 C 9.492188 0.421875 10.835938 0.335938 12.21875 0.210938 L 12.21875 -4.914062 C 10.246094 -4.828125 9.867188 -5.125 9.742188 -6.003906 C 9.660156 -6.550781 9.660156 -7.011719 9.660156 -8.0625 Z M 9.660156 -30.867188 "/></g></g></g><g fill="#222222" fill-opacity="1"><g transform="translate(194.578006, 242.852609)"><g><path d="M 15.410156 0 L 22.804688 0 C 22.46875 -2.476562 22.382812 -3.988281 22.382812 -5.667969 L 22.382812 -11.96875 C 22.382812 -13.355469 22.339844 -14.65625 22.257812 -15.789062 C 21.921875 -19.863281 19.484375 -23.011719 12.386719 -23.011719 C 6.71875 -23.011719 2.058594 -20.03125 2.015625 -14.78125 L 9.15625 -14.824219 C 9.28125 -16.753906 10.289062 -17.890625 12.050781 -17.890625 C 13.691406 -17.890625 14.613281 -16.882812 14.738281 -15.746094 C 14.824219 -15.035156 14.824219 -14.570312 14.824219 -14.109375 L 14.824219 -13.773438 L 13.394531 -13.773438 C 5.796875 -13.773438 1.261719 -10.835938 1.261719 -6.046875 C 1.261719 -1.722656 4.746094 0.589844 8.441406 0.589844 C 10.5 0.589844 12.386719 0.0859375 13.984375 -0.925781 L 14.90625 -3.277344 Z M 11.546875 -4.535156 C 10.035156 -4.535156 8.988281 -5.292969 8.988281 -6.636719 C 8.988281 -8.859375 11.421875 -9.742188 14.824219 -9.492188 L 14.824219 -8.019531 C 14.824219 -5.667969 13.058594 -4.535156 11.546875 -4.535156 Z M 11.546875 -4.535156 "/></g></g></g><g fill="#222222" fill-opacity="1"><g transform="translate(219.224914, 242.852609)"><g><path d="M 11.339844 -17.554688 L 16.292969 -17.554688 L 16.292969 -22.257812 L 11.339844 -22.257812 L 11.339844 -28.050781 L 3.78125 -28.050781 L 3.78125 -22.257812 L 0.210938 -22.257812 L 0.210938 -17.554688 L 3.78125 -17.554688 L 3.78125 -8.1875 C 3.78125 -6.929688 3.78125 -5.878906 3.863281 -4.578125 C 4.117188 -1.132812 5.796875 0.589844 11.378906 0.589844 C 12.976562 0.589844 14.363281 0.460938 15.832031 0.210938 L 15.832031 -4.492188 C 12.261719 -4.324219 11.546875 -4.828125 11.378906 -7.097656 C 11.339844 -7.683594 11.339844 -8.523438 11.339844 -9.28125 Z M 11.339844 -17.554688 "/></g></g></g><g fill="#222222" fill-opacity="1"><g transform="translate(236.020084, 242.852609)"><g><path d="M 24.230469 -11.507812 C 24.230469 -17.300781 20.453125 -23.011719 12.976562 -23.011719 C 5.5 -23.011719 1.007812 -17.679688 1.007812 -11.128906 C 1.007812 -3.234375 6.132812 0.589844 12.554688 0.589844 C 18.308594 0.589844 22.507812 -2.269531 23.8125 -7.347656 L 16.378906 -7.347656 C 16.082031 -5.628906 14.78125 -4.535156 12.640625 -4.535156 C 10.5 -4.535156 8.859375 -5.585938 8.484375 -9.324219 L 24.105469 -9.324219 C 24.1875 -10.078125 24.230469 -10.835938 24.230469 -11.507812 Z M 12.597656 -17.890625 C 14.613281 -17.890625 15.914062 -16.585938 16.335938 -13.941406 L 8.734375 -13.941406 C 9.238281 -16.714844 10.625 -17.890625 12.597656 -17.890625 Z M 12.597656 -17.890625 "/></g></g></g></svg>