<svg xmlns="http://www.w3.org/2000/svg" xmlns:xlink="http://www.w3.org/1999/xlink" width="512" zoomAndPan="magnify" viewBox="0 0 384 383.999986" height="512" preserveAspectRatio="xMidYMid meet" version="1.0"><defs><clipPath id="bec35f8022"><path d="M 184.667969 24.492188 L 325.667969 24.492188 L 325.667969 189.492188 L 184.667969 189.492188 Z M 184.667969 24.492188 " clip-rule="nonzero"/></clipPath><clipPath id="f263b867de"><path d="M 22 127 L 182 127 L 182 286 L 22 286 Z M 22 127 " clip-rule="nonzero"/></clipPath><clipPath id="2cb1605476"><path d="M 236.175781 224.960938 L 119.503906 341.632812 L 19.800781 241.929688 L 136.472656 125.257812 Z M 236.175781 224.960938 " clip-rule="nonzero"/></clipPath><clipPath id="d16fcb8246"><path d="M 237.039062 225.820312 L 120.367188 342.496094 L 19.074219 241.203125 L 135.746094 124.527344 Z M 237.039062 225.820312 " clip-rule="nonzero"/></clipPath><clipPath id="780cdcd5f8"><path d="M 203 194 L 362 194 L 362 355 L 203 355 Z M 203 194 " clip-rule="nonzero"/></clipPath><clipPath id="2e4af11d11"><path d="M 264.574219 408.488281 L 147.902344 291.816406 L 247.605469 192.113281 L 364.277344 308.785156 Z M 264.574219 408.488281 " clip-rule="nonzero"/></clipPath><clipPath id="f8bb474873"><path d="M 263.710938 409.351562 L 147.039062 292.675781 L 248.332031 191.382812 L 365.003906 308.058594 Z M 263.710938 409.351562 " clip-rule="nonzero"/></clipPath></defs><rect x="-38.4" width="460.8" fill="#ffffff" y="-38.399999" height="460.799983" fill-opacity="1"/><rect x="-38.4" width="460.8" fill="#ffffff" y="-38.399999" height="460.799983" fill-opacity="1"/><g clip-path="url(#bec35f8022)"><path fill="#d4d200" d="M 196.296875 188.15625 L 196.300781 188.15625 L 322.769531 112.992188 L 322.769531 112.953125 C 325.21875 111.535156 326.886719 108.917969 326.886719 105.882812 C 326.886719 103.164062 325.546875 100.769531 323.507812 99.28125 L 323.511719 99.257812 L 323.425781 99.210938 C 323.035156 98.933594 322.617188 98.699219 322.183594 98.492188 L 196.246094 25.910156 L 196.242188 25.914062 C 194.941406 25.042969 193.375 24.53125 191.691406 24.53125 C 187.167969 24.53125 183.496094 28.199219 183.496094 32.722656 L 183.496094 181.382812 C 183.496094 185.90625 187.167969 189.574219 191.691406 189.574219 C 193.398438 189.574219 194.984375 189.050781 196.296875 188.15625 Z M 196.296875 188.15625 " fill-opacity="1" fill-rule="nonzero"/></g><g clip-path="url(#f263b867de)"><g clip-path="url(#2cb1605476)"><g clip-path="url(#d16fcb8246)"><path fill="#40c7c0" d="M 28.96875 249.207031 L 171.546875 285.484375 L 171.578125 285.457031 C 174.3125 286.1875 177.34375 285.519531 179.488281 283.371094 C 181.410156 281.449219 182.15625 278.808594 181.765625 276.3125 L 181.78125 276.300781 L 181.757812 276.203125 C 181.675781 275.734375 181.546875 275.273438 181.386719 274.820312 L 143.65625 134.445312 L 143.652344 134.445312 C 143.351562 132.90625 142.605469 131.441406 141.414062 130.25 C 138.214844 127.050781 133.027344 127.050781 129.824219 130.25 L 24.707031 235.367188 C 21.507812 238.566406 21.511719 243.753906 24.710938 246.953125 C 25.917969 248.160156 27.410156 248.910156 28.96875 249.207031 Z M 28.96875 249.207031 " fill-opacity="1" fill-rule="nonzero"/></g></g></g><g clip-path="url(#780cdcd5f8)"><g clip-path="url(#2e4af11d11)"><g clip-path="url(#f8bb474873)"><path fill="#b5386d" d="M 240.328125 201.28125 L 240.324219 201.28125 L 204.050781 343.859375 L 204.074219 343.890625 C 203.34375 346.621094 204.015625 349.652344 206.160156 351.800781 C 208.085938 353.722656 210.726562 354.46875 213.222656 354.078125 L 213.234375 354.09375 L 213.332031 354.070312 C 213.800781 353.988281 214.261719 353.859375 214.714844 353.695312 L 355.089844 315.96875 L 355.089844 315.964844 C 356.628906 315.660156 358.09375 314.917969 359.285156 313.726562 C 362.484375 310.527344 362.484375 305.339844 359.285156 302.136719 L 254.167969 197.019531 C 250.96875 193.820312 245.78125 193.820312 242.582031 197.023438 C 241.375 198.230469 240.625 199.71875 240.328125 201.28125 Z M 240.328125 201.28125 " fill-opacity="1" fill-rule="nonzero"/></g></g></g></svg>